<svg xmlns="http://www.w3.org/2000/svg" xmlns:xlink="http://www.w3.org/1999/xlink" style="isolation:isolate" viewBox="0 0 3500 1800" width="3500pt" height="1800pt"><clipPath id="_clipPath_ihwkJCsrCOA5HpvXyFuo5N6Ey9ogPmzI"><path d=" M 0 9 L 0 2009 L 3500 2009 L 3500 9 L 0 9 Z " fill="rgb(255,255,255)"></path></clipPath><g clip-path="url(#_clipPath_ihwkJCsrCOA5HpvXyFuo5N6Ey9ogPmzI)"><path d=" M 873.935 1800.13 C 873.935 1800.13 599.847 1216.46 1140.04 1216.46 C 1425.46 1216.46 1307.88 1056.31 1501.93 870.978 C 1695.98 685.644 2374.61 537.572 2519.05 895.458 C 2663.49 1253.34 2306.53 1525.07 2651.46 1478.46 C 3065.97 1422.44 3229.71 1800.13 3229.71 1800.13 L 873.935 1800.13 Z " fill="rgb(39,94,188)"></path><path d=" M 3093.79 1726.08 C 3068.21 1707.38 3015.94 1720 2977.37 1733.5 C 2971.6 1725.4 2964.62 1717.06 2956.17 1708.9 C 3039.26 1655.37 3154.03 1541.21 3093.2 1531.55 C 3040.33 1523.15 2968.96 1625.9 2930.82 1688.46 C 2891.22 1661.81 2830.53 1642.23 2737.88 1649.02 C 2497.41 1666.65 2309.56 1511.54 2171.08 1563.27 C 2060.98 1604.4 1960.09 1627.45 1862.78 1619.58 C 1866.97 1548.49 1867.88 1408.92 1812.05 1394.44 C 1755.38 1379.74 1810.97 1538.24 1841.87 1617.39 C 1834.62 1616.46 1827.39 1615.36 1820.17 1614.07 C 1800.16 1574.62 1767.2 1523 1731 1521.24 C 1696.91 1519.58 1738.98 1565.98 1780.39 1605.3 C 1661.39 1580.32 1520.23 1677.05 1517.89 1791.42 L 3003.52 1791.42 C 3003.52 1791.42 3000.89 1774.73 2989.24 1752.72 C 3046.66 1751.59 3121.57 1746.38 3093.79 1726.08 Z " fill="rgb(45,206,137)"></path><path d=" M 1450.4 1703.03 L 1450.4 1791.44 L 1841.96 1791.44 L 1841.96 1703.03 L 1450.4 1703.03 Z " fill="rgb(46,64,95)"></path><path d=" M 1329.67 1703.02 L 1329.67 1791.45 L 1721.22 1791.45 L 1721.22 1703.02 L 1329.67 1703.02 Z " fill="rgb(23,43,77)"></path><path d=" M 1995.99 1791.42 L 2287.55 1791.42 L 2287.55 1383.9 L 1995.99 1383.9 L 1995.99 1791.42 Z " fill="rgb(46,64,95)"></path><path d=" M 1906.09 1791.42 L 2197.65 1791.42 L 2197.65 1383.9 L 1906.09 1383.9 L 1906.09 1791.42 Z " fill="rgb(23,43,77)"></path><path d=" M 2197.65 1383.9 L 2287.55 1445.09 L 2287.55 1383.9 L 2197.65 1383.9 Z " fill="rgb(39,94,188)"></path><path d=" M 1297.63 1474.17 C 1297.63 1474.17 1243.11 1514.72 1232.48 1512.26 C 1221.84 1509.8 1272.32 1468.49 1272.32 1468.49 C 1253.33 1459.36 1194.28 1465.08 1194.28 1465.08 C 1194.28 1465.08 1174.61 1528.51 1164.91 1523.51 C 1155.21 1518.51 1185.19 1468.23 1185.19 1468.23 C 1164.04 1466.96 1138.09 1482.67 1138.09 1482.67 C 1102.56 1510.72 1140.42 1554.89 1140.42 1554.89 C 1140.42 1554.89 1133.13 1576.72 1110.7 1596.61 C 1110.7 1596.61 1078.66 1620.3 1076.43 1662.64 L 1082.25 1663.16 C 1082.25 1663.16 1091.47 1623.73 1108.22 1605.08 C 1108.87 1604.4 1109.82 1603.43 1110.98 1602.25 C 1113.71 1599.73 1115.63 1597.83 1116.91 1596.42 C 1125.25 1588.41 1136.77 1578.2 1142.32 1577.21 C 1142.32 1577.21 1142.04 1576.2 1142.08 1574.42 C 1142.16 1575.32 1142.24 1576.24 1142.32 1577.21 C 1144.22 1599.54 1187.53 1619.03 1214.17 1623.04 C 1240.82 1627.05 1232.58 1616.1 1223.4 1599.86 C 1214.22 1583.62 1185.17 1576.36 1178.54 1568.88 C 1171.91 1561.4 1185.62 1561.38 1201.67 1568.71 C 1217.72 1576.04 1219.92 1595.59 1245.67 1607.93 C 1271.42 1620.26 1310.17 1577.53 1310.17 1577.53 C 1289.65 1576.49 1260.34 1554.2 1261.4 1547.38 C 1262.46 1540.56 1311.15 1559.14 1319.47 1560.04 C 1327.79 1560.93 1346.73 1550.58 1349.66 1517.05 C 1352.59 1483.52 1297.63 1474.17 1297.63 1474.17 Z " fill="rgb(37,167,111)"></path><path d=" M 1008.05 1499.35 C 1008.05 1499.35 1068.28 1465.62 1040.17 1419.85 C 1040.17 1419.85 1017.69 1391.75 993.602 1384.52 C 993.602 1384.52 1006.45 1452.77 993.602 1454.38 C 980.753 1455.98 984.769 1377.29 984.769 1377.29 C 984.769 1377.29 921.333 1346.78 896.441 1349.19 C 896.441 1349.19 935.787 1415.84 922.939 1414.23 C 910.092 1412.62 865.929 1345.17 865.929 1345.17 C 865.929 1345.17 800.887 1333.13 790.448 1371.67 C 780.01 1410.21 796.872 1429.49 806.508 1431.9 C 816.143 1434.3 877.973 1433.5 876.367 1441.53 C 874.761 1449.56 833.007 1462.41 809.72 1455.18 C 809.72 1455.18 835.415 1518.62 869.14 1515.41 C 902.865 1512.19 913.304 1491.32 934.182 1489.71 C 955.059 1488.1 970.315 1493.72 959.876 1499.35 C 949.438 1504.97 914.106 1501.19 897.245 1515.52 C 880.381 1529.86 866.731 1538.69 898.048 1545.11 C 929.364 1551.54 985.572 1547.52 996.813 1523.43 C 1008.05 1499.35 1008.05 1499.35 1008.05 1499.35 Z " fill="rgb(45,206,137)"></path><path d=" M 1024.11 1557.96 C 1007.25 1526.65 1008.05 1499.35 1008.05 1499.35 C 988.783 1438.32 820.159 1383.72 820.159 1383.72 C 1034.55 1470.44 996.813 1523.43 996.813 1523.43 C 1002.59 1526.8 1011.25 1542.88 1017.27 1555.21 C 1018.12 1557.3 1019.48 1560.21 1021.49 1564.15 L 1021.49 1564.15 C 1022.31 1565.93 1022.96 1567.39 1023.41 1568.41 C 1034.45 1596.03 1028.6 1643.73 1028.6 1643.73 L 1035.29 1645.52 C 1050.12 1597.45 1024.11 1557.96 1024.11 1557.96 Z " fill="rgb(36,165,110)"></path><path d=" M 1103.87 1452.83 C 1103.87 1452.83 1024.48 1408.38 1061.53 1348.05 C 1061.53 1348.05 1091.16 1311 1122.92 1301.47 C 1122.92 1301.47 1105.98 1391.44 1122.92 1393.56 C 1139.85 1395.68 1134.56 1291.95 1134.56 1291.95 C 1134.56 1291.95 1218.18 1251.72 1250.99 1254.9 C 1250.99 1254.9 1199.13 1342.75 1216.06 1340.64 C 1233 1338.52 1291.21 1249.61 1291.21 1249.61 C 1291.21 1249.61 1376.95 1233.73 1390.71 1284.54 C 1404.47 1335.34 1382.24 1360.75 1369.54 1363.92 C 1356.84 1367.1 1275.34 1366.04 1277.45 1376.62 C 1279.57 1387.21 1334.61 1404.14 1365.31 1394.62 C 1365.31 1394.62 1331.44 1478.24 1286.98 1474 C 1242.53 1469.77 1228.76 1442.25 1201.24 1440.13 C 1173.72 1438.02 1153.61 1445.42 1167.37 1452.83 C 1181.13 1460.24 1227.71 1455.26 1249.93 1474.16 C 1272.16 1493.06 1290.16 1504.7 1248.88 1513.17 C 1207.6 1521.63 1133.5 1516.34 1118.68 1484.59 C 1103.87 1452.83 1103.87 1452.83 1103.87 1452.83 Z " fill="rgb(85,215,160)"></path><path d=" M 1351.55 1300.41 C 1351.55 1300.41 1129.27 1372.39 1103.87 1452.83 C 1103.87 1452.83 1104.92 1488.82 1082.69 1530.1 C 1082.69 1530.1 1048.42 1582.16 1067.96 1645.52 L 1076.78 1643.15 C 1076.78 1643.15 1069.07 1580.28 1083.62 1543.87 C 1084.21 1542.53 1085.08 1540.61 1086.15 1538.26 L 1086.15 1538.26 C 1088.81 1533.06 1090.59 1529.23 1091.72 1526.47 C 1099.65 1510.21 1111.07 1489.03 1118.68 1484.59 C 1118.68 1484.59 1068.94 1414.73 1351.55 1300.41 Z " fill="rgb(37,167,111)"></path><path d=" M 1101.19 1782.93 C 1187.07 1782.93 1256.69 1713.31 1256.69 1627.43 L 945.688 1627.43 C 945.688 1713.31 1015.31 1782.93 1101.19 1782.93 Z " fill="rgb(23,43,77)"></path><path d=" M 1139.45 1781.74 C 1133.13 1782.53 1126.68 1782.93 1120.13 1782.93 C 1034.25 1782.93 964.639 1713.31 964.639 1627.43 L 1003.27 1627.43 C 1003.27 1706.77 1062.69 1772.23 1139.45 1781.74 Z " fill="rgb(46,64,95)"></path><path d=" M 1239.66 1772.24 L 962.724 1772.24 C 952.129 1772.24 943.539 1780.83 943.539 1791.42 L 1258.84 1791.42 C 1258.84 1780.83 1250.25 1772.24 1239.66 1772.24 Z " fill="rgb(23,43,77)"></path><path d=" M 1257.85 1627.43 L 942.958 1627.43 C 941.642 1627.43 940.574 1628.5 940.574 1629.81 C 940.574 1631.13 941.642 1632.2 942.958 1632.2 L 1257.85 1632.2 C 1259.16 1632.2 1260.23 1631.13 1260.23 1629.81 C 1260.23 1628.5 1259.16 1627.43 1257.85 1627.43 Z " fill="rgb(16,30,54)"></path><path d=" M 2457.79 808.564 C 2453.29 807.879 2439.71 820.437 2439.71 820.437 L 2439.71 820.437 C 2410.7 823.787 2368.3 831.488 2353.04 834.426 C 2342.21 836.51 2313.12 826.589 2284.69 815.198 C 2250.88 801.646 2218.03 786.011 2218.03 786.011 C 2199.27 785.056 2177.97 819.28 2216.01 841.04 C 2221.82 844.362 2243.64 850.031 2268.77 855.208 C 2268.77 855.208 2268.77 855.208 2268.77 855.205 C 2303.43 862.347 2344.38 868.547 2358.32 866.368 C 2372.682 864.121 2410.37 850.673 2437.733 838.703 C 2441.216 837.179 2444.531 835.679 2447.61 834.23 L 2447.61 834.231 C 2447.61 834.231 2447.63 834.218 2447.67 834.197 C 2447.78 834.149 2447.88 834.102 2447.98 834.054 C 2449.61 833.289 2456.29 830.317 2460.74 830.58 C 2465.85 830.883 2477.22 821.536 2477.57 819.041 C 2477.92 816.547 2462.3 809.248 2457.79 808.564 Z " fill="rgb(238,160,160)"></path><path d=" M 2422.38 1239.72 L 2406.42 1242.96 C 2406.42 1242.96 2333.34 1160.86 2322.06 1126.31 C 2316.03 1107.85 2277.45 1099.87 2237.13 1089.44 C 2202.04 1080.37 2165.63 1069.44 2148.25 1048.11 C 2110.87 1002.285 2171.72 945.976 2171.72 945.976 C 2171.72 945.976 2236.41 984.424 2292.22 1024.15 C 2331.23 1051.91 2365.9 1080.29 2371.13 1096.6 C 2383.81 1136.26 2410.72 1211.65 2422.38 1239.72 Z " fill="rgb(16,30,54)"></path><path d=" M 2401.01 1266.81 L 2409.99 1266.81 C 2413 1266.33 2415.22 1265.46 2418.31 1265.06 C 2423 1264.44 2425.15 1266.37 2425.58 1266.81 C 2425.64 1266.86 2425.67 1266.9 2425.67 1266.9 L 2463.82 1266.9 C 2464.78 1265.53 2463.86 1262.35 2462.96 1260.01 C 2462.35 1258.43 2461.02 1257.22 2459.38 1256.75 C 2455.34 1255.58 2447.36 1254.53 2440.06 1247.92 C 2435.95 1244.21 2420.21 1234.26 2420.21 1234.26 L 2420.13 1234.25 C 2419.78 1234.25 2418.14 1234.76 2410.98 1240.8 C 2407.28 1243.92 2400.97 1236.4 2400.97 1236.4 C 2400.97 1236.4 2399.79 1237.38 2398.9 1239.2 C 2398.19 1240.64 2397.68 1242.62 2398.08 1245.06 C 2398.65 1248.5 2396.82 1254.89 2395.35 1259.21 C 2394.46 1261.83 2393.71 1263.68 2393.71 1263.68 C 2393.71 1263.68 2393.28 1265.84 2401.01 1266.81 Z " fill="rgb(16,30,54)"></path><path d=" M 2292.22 1024.15 L 2237.13 1089.44 C 2202.04 1080.37 2165.63 1069.44 2148.25 1048.11 C 2110.87 1002.285 2171.72 945.976 2171.72 945.976 C 2171.72 945.976 2236.41 984.424 2292.22 1024.15 Z " fill="rgb(13,24,44)"></path><path d=" M 2242.16 990.04 C 2242.16 990.04 2237.72 1004.044 2230.49 1025.11 C 2221.35 1051.75 2207.73 1089.69 2192.96 1124.87 C 2189.72 1132.6 2186.41 1140.2 2183.09 1147.51 C 2170.81 1174.58 2158.23 1197.79 2147.16 1209.58 C 2127.27 1230.78 2078.91 1367.07 2078.91 1367.07 L 2066.86 1363.74 C 2066.86 1363.74 2050.06 1247.36 2109.57 1181.13 C 2110.21 1180.43 2110.71 1179.61 2110.78 1178.66 C 2110.79 1178.65 2110.79 1178.64 2110.79 1178.64 C 2111.58 1168.83 2114.41 1124.94 2120.57 1080.45 C 2122.09 1069.54 2123.8 1058.6 2125.73 1048.11 C 2125.85 1047.44 2125.98 1046.78 2126.1 1046.12 C 2135.15 997.641 2143.82 976.078 2155.01 965.233 L 2237.29 988.654 L 2242.16 990.04 Z " fill="rgb(16,30,54)"></path><path d=" M 2065.52 1383.81 L 2074.5 1383.81 C 2077.51 1383.34 2079.73 1382.46 2082.82 1382.06 C 2087.5 1381.45 2089.66 1383.37 2090.09 1383.81 C 2090.15 1383.87 2090.17 1383.9 2090.17 1383.9 L 2128.33 1383.9 C 2129.29 1382.53 2128.37 1379.35 2127.46 1377.02 C 2126.86 1375.43 2125.53 1374.23 2123.89 1373.75 C 2119.85 1372.58 2111.87 1371.54 2104.56 1364.92 C 2100.45 1361.21 2084.72 1351.27 2084.72 1351.27 L 2084.63 1351.25 C 2084.29 1351.25 2082.64 1351.76 2075.49 1357.8 C 2071.79 1360.92 2065.48 1353.4 2065.48 1353.4 C 2065.48 1353.4 2064.29 1354.38 2063.41 1356.2 C 2062.7 1357.64 2062.18 1359.62 2062.59 1362.06 C 2063.16 1365.5 2061.32 1371.89 2059.86 1376.21 C 2058.97 1378.83 2058.22 1380.69 2058.22 1380.69 C 2058.22 1380.69 2057.79 1382.84 2065.52 1383.81 Z " fill="rgb(16,30,54)"></path><path d=" M 2083.17 831.764 C 2083.17 831.764 2069.4 865.442 2053.53 898.225 C 2040.17 925.786 2025.34 952.71 2015.93 958.457 C 2002.67 966.56 1966.13 989.414 1942.43 1006.461 C 1942.43 1006.461 1923.94 1006.321 1921.06 1009.86 C 1918.19 1013.4 1911.56 1029.31 1913.49 1030.92 C 1915.43 1032.53 1930.13 1031.79 1933.71 1028.12 C 1936.82 1024.93 1943.76 1022.63 1945.48 1022.1 C 1945.59 1022.07 1945.7 1022.04 1945.8 1022 C 1945.85 1021.99 1945.88 1021.98 1945.88 1021.98 L 1945.88 1021.98 C 1974.68 1013.12 2019.86 994.66 2033.53 985.632 C 2045.31 977.858 2071.41 945.706 2092.23 917.088 C 2092.24 917.086 2092.24 917.086 2092.24 917.086 C 2107.33 896.343 2119.65 877.458 2121.71 871.093 C 2135.19 829.393 2096.39 818.428 2083.17 831.764 Z " fill="rgb(253,168,166)"></path><path d=" M 2155.16 699.695 C 2153.53 697.313 2151.88 695.209 2150.23 693.323 C 2152.27 693.366 2154.48 693.166 2156.31 692.41 C 2161.14 690.412 2163.34 675.07 2162.62 670.521 C 2161.89 665.972 2155.18 652.812 2146.9 651.5 C 2138.63 650.188 2130.07 659.381 2130.07 659.381 C 2131.6 652.745 2145.61 648.919 2145.61 648.919 C 2116.76 654.237 2118.23 673.478 2118.43 675.254 C 2092.02 665.847 2076.52 715.575 2076.52 715.575 L 2144.92 755.884 C 2144.92 755.884 2145.1 744.899 2151.63 745.608 C 2161.8 746.712 2170.28 721.721 2155.16 699.695 Z " fill="rgb(16,30,54)"></path><path d=" M 2159.52 804.037 C 2143.83 811.435 2123 800.78 2123.11 800.667 C 2124.46 799.322 2123.98 795.292 2122.75 790.023 C 2121.52 784.53 2118.6 777.018 2113.22 768.051 C 2112.1 766.144 2110.98 764.239 2109.63 762.22 L 2111.43 761.549 L 2141.92 749.329 C 2141.92 749.329 2146.85 758.185 2152.01 766.256 C 2156.38 772.983 2160.98 779.036 2163 778.813 C 2163.11 778.701 2183.29 792.602 2159.52 804.037 Z " fill="rgb(253,168,166)"></path><path d=" M 2141.92 752.355 C 2141.14 763.229 2137.44 782.848 2122.75 790.023 C 2121.52 784.53 2118.6 777.018 2113.22 768.051 L 2141.92 752.355 Z " fill="rgb(236,148,148)"></path><path d=" M 2111.44 780.426 C 2111.44 780.426 2151.14 764.779 2141.01 740.207 C 2130.89 715.635 2129.19 697.066 2103.42 706.018 C 2077.64 714.969 2076.61 726.362 2078 735.386 C 2079.38 744.409 2100.85 783.863 2111.44 780.426 Z " fill="rgb(253,168,166)"></path><path d=" M 2126.24 734.604 C 2144.57 732.016 2149.92 724.606 2149.92 724.606 C 2149.92 724.606 2133.04 719.764 2123.12 703.23 C 2123.12 703.23 2102.52 696.282 2087.25 707.897 C 2086.33 709.105 2085.66 710.529 2085.32 712.203 C 2081.82 711.056 2076.56 711.354 2073.53 721.244 C 2068.96 736.102 2085.19 752.325 2085.19 752.325 C 2089.13 751.212 2084.69 737.972 2084.07 730.905 C 2083.61 725.704 2086.42 719.048 2087.93 715.891 C 2089.87 718.411 2109.21 742.713 2132.82 743.683 C 2132.82 743.683 2120.35 739.356 2109 730.89 C 2114.64 733.664 2120.65 735.394 2126.24 734.604 Z " fill="rgb(16,30,54)"></path><path d=" M 2235.1 854.663 C 2234.77 853.478 2234.41 852.248 2234.03 850.985 C 2239.92 839.717 2242.82 829.561 2244.05 820.965 C 2246.74 802.802 2242.14 791.592 2242.14 791.592 C 2242.14 791.592 2214.61 776.989 2202.45 775.13 C 2202.4 775.111 2202.34 775.091 2202.3 775.085 C 2202.15 775.065 2201.99 775.051 2201.81 775.04 C 2189.54 773.347 2162.96 778.771 2162.96 778.771 C 2162.96 778.771 2168.09 792.417 2153.63 801.514 C 2139.17 810.609 2123.72 799.184 2123.72 799.184 C 2123.26 799.497 2122.76 799.842 2122.25 800.203 C 2122.25 800.203 2122.25 800.201 2122.25 800.201 C 2122.25 800.201 2084.2 825.306 2080.78 831.043 C 2077.37 836.782 2062.73 865.187 2062.73 865.187 C 2062.73 865.187 2067.37 889.034 2118.78 891.028 C 2123 901.276 2126.24 911.272 2127.29 919.61 C 2131.37 951.981 2126.63 977.517 2131.39 996.412 C 2136.15 1015.31 2221.91 1004.532 2237.44 1000.897 C 2252.97 997.261 2249.48 980.677 2250.67 964.566 C 2252.17 944.321 2240.16 872.521 2235.1 854.663 Z " fill="rgb(17,205,239)"></path><path d=" M 2244.05 820.965 C 2242.81 829.595 2239.9 839.798 2233.96 851.119 C 2232.61 845.179 2227.12 823.43 2218.26 813.563 C 2218.26 813.563 2233.17 814.911 2244.05 820.965 Z " fill="rgb(15,185,215)"></path><path d=" M 1894.85 1033.12 C 1894.85 1033.12 1910.83 1013.75 1914.27 1011.47 C 1917.71 1009.18 1932.8 1005.165 1933.67 1005.973 C 1934.53 1006.781 1934.57 1007.95 1932.7 1009.6 C 1930.83 1011.25 1923.69 1015.42 1924.71 1015.89 C 1925.73 1016.36 1947.26 1005.638 1950.36 1009.24 C 1953.47 1012.85 1948.61 1027.73 1940.31 1034.87 C 1932.01 1042 1907.25 1045.04 1905.69 1046.04 C 1892.48 1054.49 1894.85 1033.12 1894.85 1033.12 Z " fill="rgb(238,160,160)"></path><path d=" M 1613.55 988.408 C 1613.55 988.408 1636.5 1015.64 1665.74 1004.249 C 1665.74 1004.249 1672.02 989.04 1672.11 977.828 C 1672.12 976.448 1672.14 975.111 1672.16 973.839 C 1672.32 961.214 1672.74 954.131 1672.74 954.131 C 1672.74 954.131 1672.73 954.128 1672.71 954.125 C 1671.38 953.57 1628.03 935.771 1628.06 937.249 C 1628.81 971.394 1613.55 988.408 1613.55 988.408 Z " fill="rgb(252,167,165)"></path><path d=" M 1632.42 945.392 C 1636.6 953.141 1650.94 968.301 1672.16 973.839 C 1672.32 961.214 1672.74 954.131 1672.74 954.131 C 1672.74 954.131 1672.73 954.128 1672.71 954.125 C 1671.51 953.803 1631.17 943.106 1632.42 945.392 Z " fill="rgb(236,148,148)"></path><path d=" M 1681.82 952.818 C 1681.82 952.818 1633.07 964.282 1626.39 933.809 C 1619.72 903.335 1608.94 884.291 1639.79 875.684 C 1670.63 867.077 1679.25 877.377 1683.95 887.007 C 1688.65 896.637 1694.33 949.052 1681.82 952.818 Z " fill="rgb(252,167,165)"></path><path d=" M 1628.06 942.111 C 1627.4 942.538 1616.91 945.761 1597.04 906.181 C 1593.92 899.967 1591.79 886.527 1599.06 874.65 C 1606.33 862.774 1632.11 853.436 1653.53 849.372 C 1674.95 845.309 1680.09 857.36 1685.13 869.473 C 1690.43 882.187 1705.72 892.655 1705.72 892.655 C 1687.25 902.973 1665.01 888.216 1657.3 890.643 C 1649.59 893.069 1646.87 905.215 1646.29 909.109 C 1645.71 913.001 1644.83 916.236 1635.13 912.759 C 1625.44 909.282 1630.75 926.493 1632.3 929.783 C 1632.3 929.783 1633.62 938.55 1628.06 942.111 Z " fill="rgb(16,30,54)"></path><path d=" M 1502.46 1703.03 L 1472.94 1703.03 C 1466.75 1703.03 1459.87 1696.75 1458.15 1685.25 C 1456.43 1673.75 1443.71 1667.47 1440.95 1658.06 C 1438.2 1648.65 1452.31 1635.4 1452.31 1635.4 L 1454.67 1632.33 L 1457.12 1629.13 L 1480.5 1634.7 C 1480.5 1634.7 1481.08 1640.35 1481.44 1647.53 C 1481.69 1652.72 1481.83 1658.73 1481.54 1663.99 C 1480.85 1676.54 1485.01 1690.05 1496.01 1692.49 C 1507.02 1694.93 1502.46 1703.03 1502.46 1703.03 Z " fill="rgb(16,30,54)"></path><path d=" M 1707.99 1703.31 L 1629.73 1703.31 C 1628.98 1703.16 1628.41 1702.99 1628.07 1702.82 C 1622.85 1700.12 1624.48 1679.53 1625.11 1673.16 C 1625.23 1671.98 1625.32 1671.29 1625.32 1671.29 C 1625.32 1671.29 1652.83 1648.63 1656.62 1665.98 C 1656.74 1666.53 1656.88 1667.06 1657.03 1667.58 L 1657.03 1667.59 C 1661.8 1683.82 1683.16 1691.2 1695.49 1693.25 C 1704.92 1694.83 1707.36 1700.49 1707.99 1703.31 Z " fill="rgb(16,30,54)"></path><path d=" M 1692.22 1250.76 C 1692.22 1250.76 1688.04 1302.9 1683.13 1365.58 C 1676.45 1450.72 1668.42 1555.31 1667.63 1575.12 C 1666.25 1609.52 1660.74 1664.55 1660.74 1664.55 C 1660.74 1664.55 1647.68 1677.63 1621.53 1672.12 C 1621.53 1672.12 1598.23 1593.56 1591.57 1510.44 C 1591.47 1509.08 1591.37 1507.71 1591.26 1506.33 C 1585.07 1421.72 1575.45 1243.54 1575.45 1243.54 L 1692.22 1250.76 Z " fill="rgb(17,205,239)"></path><path d=" M 1692.22 1250.76 C 1692.22 1250.76 1688.04 1302.9 1683.13 1365.58 L 1591.57 1510.44 C 1591.47 1509.08 1591.37 1507.71 1591.26 1506.33 C 1585.07 1421.72 1575.45 1243.54 1575.45 1243.54 L 1692.22 1250.76 Z " fill="rgb(15,185,215)"></path><path d=" M 1673.13 1256.95 C 1673.13 1256.95 1597.8 1445.79 1548.27 1534.54 C 1498.74 1623.28 1483.26 1648.05 1483.26 1648.05 C 1483.26 1648.05 1454.88 1636.69 1452.3 1628.96 C 1452.3 1628.96 1471.24 1457.63 1504.41 1415.87 C 1523.16 1392.27 1545.17 1321.45 1546.21 1296.68 C 1547.24 1271.92 1552.91 1222.9 1552.91 1222.9 L 1673.13 1256.95 Z " fill="rgb(17,205,239)"></path><path d=" M 1500.66 1225.5 C 1500.66 1225.5 1498.71 1249.09 1497.28 1252.71 C 1495.85 1256.33 1486.33 1267.56 1485.22 1267.39 C 1484.12 1267.23 1483.46 1266.35 1484.02 1264.06 C 1484.58 1261.78 1487.86 1254.72 1486.82 1254.9 C 1485.78 1255.09 1474.88 1274.97 1470.54 1273.85 C 1466.2 1272.73 1461.95 1258.59 1464.54 1248.61 C 1467.12 1238.62 1484.65 1222.94 1485.32 1221.33 C 1491 1207.69 1500.66 1225.5 1500.66 1225.5 Z " fill="rgb(238,160,160)"></path><path d=" M 1492.58 1231.49 C 1500.91 1234.16 1502.25 1233.56 1502.25 1233.56 C 1502.25 1233.56 1542.83 1159.67 1546.94 1152.91 C 1551.05 1146.15 1633.1 1070.06 1633.1 1070.06 L 1612.02 991.425 C 1612.02 991.425 1518.69 1112.27 1508.62 1129.62 C 1491.96 1158.27 1482.2 1224.83 1482.2 1224.83 C 1482.2 1224.83 1486.03 1229.38 1492.58 1231.49 Z " fill="rgb(12,22,39)"></path><path d=" M 1708.12 1100.93 C 1707.83 1117.08 1706.89 1135.23 1705.62 1153.66 C 1705.54 1154.76 1705.47 1155.85 1705.39 1156.94 C 1704.58 1168.37 1703.7 1179.81 1702.7 1190.98 C 1702.29 1195.46 1701.86 1199.88 1701.41 1204.22 L 1701.34 1204.81 C 1701.31 1206.44 1701.11 1208.2 1700.93 1209.81 C 1696.82 1251.63 1692.5 1284.66 1691.7 1285.17 C 1690.75 1285.81 1689.67 1286.12 1688.49 1285.99 C 1677.53 1284.61 1644.81 1287.1 1618.03 1281.27 C 1595.42 1276.5 1575.96 1267.46 1555.34 1255.28 C 1552.6 1253.66 1546.36 1249.37 1546.87 1246.17 C 1547.37 1242.65 1548.29 1237.56 1549.46 1231.17 C 1553.52 1208.92 1560.54 1170.67 1562.93 1125.89 C 1563.39 1117.55 1564.07 1109.31 1564.95 1101.21 C 1567.25 1080.12 1570.93 1060.08 1575.88 1042.28 C 1585.06 1009.21 1598.55 983.884 1615.49 973.978 C 1617.7 972.738 1629.6 980.312 1640.53 987.327 C 1650.63 993.8 1661.26 995.591 1671.6 994.687 L 1680.7 1004.749 C 1691.71 1017.56 1703.44 1034.61 1706.65 1058.85 C 1706.89 1060.64 1707.09 1062.54 1707.27 1064.56 C 1708.15 1074.43 1708.37 1086.93 1708.12 1100.93 Z " fill="rgb(16,30,54)"></path><path d=" M 1708.12 1100.93 C 1707.83 1117.08 1706.89 1135.23 1705.62 1153.66 C 1705.54 1154.76 1705.47 1155.85 1705.39 1156.94 C 1642.75 1117.74 1633.1 1045.99 1633.1 1045.99 C 1663.92 1047.35 1688.4 1054.43 1707.27 1064.56 C 1708.15 1074.43 1708.37 1086.93 1708.12 1100.93 Z " fill="rgb(11,21,38)"></path><path d=" M 1904.36 1035.05 C 1901.13 1026.32 1896.11 1026.89 1896.11 1026.89 C 1896.11 1026.89 1802.98 1050.1 1794.62 1051.09 C 1786.26 1052.09 1694.33 1015.2 1694.33 1015.2 C 1694.33 1015.2 1658.15 998.958 1641.2 1013.79 C 1626.47 1026.67 1625.8 1042.99 1629.25 1056.7 C 1633.35 1073.04 1647.18 1085.1 1663.89 1087.23 C 1701.39 1092.01 1776.22 1101 1791.9 1098.82 C 1826.81 1093.96 1905.9 1048.3 1905.9 1048.3 C 1905.9 1048.3 1906.89 1041.92 1904.36 1035.05 Z " fill="rgb(16,30,54)"></path><path d=" M 2822.67 1205.75 C 2822.67 1205.75 2835.61 1217.74 2833.09 1226.27 C 2830.56 1234.79 2818.89 1240.47 2817.31 1250.88 C 2815.73 1261.29 2809.42 1266.97 2803.74 1266.97 C 2798.06 1266.97 2776.66 1266.97 2776.66 1266.97 C 2776.66 1266.97 2772.48 1259.65 2782.58 1257.44 C 2792.67 1255.23 2796.48 1242.99 2795.85 1231.63 C 2795.22 1220.27 2796.8 1205.12 2796.8 1205.12 L 2818.26 1200.07 L 2822.67 1205.75 Z " fill="rgb(16,30,54)"></path><path d=" M 2661.42 1265.56 C 2660.1 1266.22 2655.49 1266.67 2649.16 1266.97 L 2587.92 1266.97 C 2588.12 1265.15 2589.55 1258.66 2599.56 1257.04 C 2610.88 1255.21 2630.48 1248.63 2634.84 1234.16 C 2634.99 1233.7 2635.12 1233.22 2635.22 1232.74 C 2638.69 1217.28 2663.94 1237.47 2663.94 1237.47 C 2663.94 1237.47 2664.01 1238.09 2664.12 1239.14 C 2664.71 1244.83 2666.2 1263.17 2661.42 1265.56 Z " fill="rgb(16,30,54)"></path><path d=" M 2602.56 851.962 C 2602.56 851.962 2606.4 899.8 2610.9 957.305 C 2617.03 1035.42 2624.4 1131.37 2625.12 1149.55 C 2626.38 1181.11 2631.44 1231.6 2631.44 1231.6 C 2631.44 1231.6 2643.42 1243.6 2667.42 1238.54 C 2667.42 1238.54 2688.79 1166.47 2694.9 1090.21 C 2694.99 1088.96 2695.09 1087.7 2695.18 1086.44 C 2700.86 1008.81 2709.7 845.336 2709.7 845.336 L 2602.56 851.962 Z " fill="rgb(17,205,239)"></path><path d=" M 2602.56 851.962 C 2602.56 851.962 2606.4 899.8 2610.9 957.305 L 2694.9 1090.21 C 2694.99 1088.96 2695.09 1087.7 2695.18 1086.44 C 2700.86 1008.81 2709.7 845.336 2709.7 845.336 L 2602.56 851.962 Z " fill="rgb(15,185,215)"></path><path d=" M 2620.07 857.644 C 2620.07 857.644 2689.18 1030.9 2734.63 1112.31 C 2780.07 1193.73 2794.27 1216.46 2794.27 1216.46 C 2794.27 1216.46 2820.31 1206.04 2822.67 1198.94 C 2822.67 1198.94 2805.3 1041.76 2774.86 1003.441 C 2757.67 981.789 2737.47 916.814 2736.52 894.092 C 2735.57 871.37 2730.37 826.401 2730.37 826.401 L 2620.07 857.644 Z " fill="rgb(17,205,239)"></path><path d=" M 2406.91 763.678 C 2406.91 763.678 2388.16 759.391 2385 759.607 C 2381.85 759.825 2370.81 764.44 2370.67 765.335 C 2370.52 766.229 2371.04 766.958 2372.95 767.086 C 2374.85 767.215 2381.13 766.407 2380.73 767.168 C 2380.34 767.928 2362.26 771.482 2362.06 775.122 C 2361.86 778.76 2371.76 785.523 2380.13 785.977 C 2388.5 786.429 2404.96 776.706 2406.37 776.583 C 2418.33 775.538 2406.91 763.678 2406.91 763.678 Z " fill="rgb(253,168,166)"></path><path d=" M 2398.88 768.438 C 2396.19 759.875 2396.82 758.512 2396.82 758.512 C 2396.82 758.512 2472.81 717.423 2479.77 713.256 C 2486.73 709.09 2565.25 625.519 2565.25 625.519 L 2645.69 647.659 C 2645.69 647.659 2521.22 742.479 2503.38 752.688 C 2473.9 769.561 2405.63 779.111 2405.63 779.111 C 2405.63 779.111 2400.99 775.164 2398.88 768.438 Z " fill="rgb(23,43,77)"></path><path d=" M 2589.63 584.894 C 2589.63 584.894 2561.43 634.508 2533.87 640.984 C 2533.87 640.984 2535.01 624.321 2541.73 612.918 C 2538.98 609.677 2536.56 606.699 2534.47 604.034 C 2527.54 595.143 2524.24 589.701 2524.24 589.701 L 2533.59 564.553 L 2539.94 547.491 C 2542.99 553.028 2546.35 557.747 2549.86 561.781 C 2567.92 582.55 2589.63 584.894 2589.63 584.894 Z " fill="rgb(253,168,166)"></path><path d=" M 2549.86 561.781 C 2549.86 561.781 2553.22 586.645 2534.47 604.034 C 2527.54 595.143 2524.24 589.701 2524.24 589.701 L 2533.59 564.553 C 2543.62 561.497 2549.86 561.781 2549.86 561.781 Z " fill="rgb(236,148,148)"></path><path d=" M 2516.81 593.367 C 2516.81 593.367 2558.94 576.942 2548.31 550.862 C 2537.67 524.781 2535.95 505.097 2508.6 514.481 C 2481.25 523.866 2480.11 535.935 2481.55 545.503 C 2482.98 555.072 2505.57 596.968 2516.81 593.367 Z " fill="rgb(253,168,166)"></path><path d=" M 2734.45 839.497 C 2717.45 863.932 2590.38 896.581 2591.89 879.667 C 2592.47 873.194 2593.24 861.781 2591.87 846.305 C 2591.55 842.681 2591.11 838.842 2590.52 834.779 C 2587.29 812.556 2579.62 783.978 2562.52 750.9 C 2561.24 748.421 2559.9 745.925 2558.52 743.395 C 2551.48 730.587 2545.48 717.047 2540.9 703.809 C 2532.09 678.366 2528.55 654.024 2532.99 638.109 C 2533.01 638.031 2533.03 637.963 2533.06 637.886 C 2559.62 625.603 2569.91 577.969 2569.91 577.969 C 2569.91 577.969 2660.54 594.237 2711.3 715.033 C 2711.3 715.033 2749.24 818.228 2734.45 839.497 Z " fill="rgb(23,43,77)"></path><path d=" M 2591.87 846.305 C 2591.55 842.681 2591.11 838.842 2590.52 834.779 C 2587.29 812.556 2579.62 783.978 2562.52 750.9 C 2565.46 733.1 2569.51 718.296 2573.96 711.633 C 2592.04 684.545 2602.56 680.311 2602.56 680.311 C 2602.56 680.311 2629.67 794.618 2591.87 846.305 Z " fill="rgb(17,32,56)"></path><path d=" M 2449.02 819.109 C 2449.02 819.109 2423.95 820.425 2420.07 821.826 C 2416.18 823.226 2403.97 832.966 2404.11 834.141 C 2404.24 835.315 2405.16 836.042 2407.6 835.523 C 2410.04 835.004 2417.63 831.748 2417.41 832.845 C 2417.18 833.942 2395.75 844.865 2396.79 849.505 C 2397.85 854.146 2412.7 859.097 2423.37 856.676 C 2434.04 854.255 2451.23 836.165 2452.96 835.505 C 2467.61 829.919 2449.02 819.109 2449.02 819.109 Z " fill="rgb(253,168,166)"></path><path d=" M 2444.29 828.616 C 2439.27 820.503 2442.89 816.801 2442.89 816.801 C 2442.89 816.801 2520.33 756.166 2526.4 750.04 C 2532.48 743.916 2560.59 646.375 2560.59 646.375 C 2560.59 646.375 2570.27 606.9 2592.94 602.548 C 2612.63 598.765 2626.24 608.508 2635.15 619.931 C 2645.76 633.544 2646.8 652.319 2637.99 667.163 C 2618.22 700.482 2578.33 766.618 2566.68 777.918 C 2540.76 803.065 2454.02 838.21 2454.02 838.21 C 2454.02 838.21 2448.24 834.989 2444.29 828.616 Z " fill="rgb(23,43,77)"></path><path d=" M 2554.35 502.415 C 2554.65 501.833 2555.51 501.209 2557.6 500.569 C 2557.6 500.569 2555.64 499.91 2553.36 500.412 C 2552.17 497.525 2549.3 492.61 2543.91 492.572 C 2543.91 492.572 2547 493.377 2548.14 496.474 C 2540.75 491.789 2527.05 490.429 2492.85 501.82 C 2447.78 516.832 2470.3 542.995 2477.13 545.093 C 2483.96 547.19 2496.54 533.729 2507.85 531.891 C 2519.16 530.053 2525.28 545.808 2529.59 547.115 C 2533.9 548.421 2531.45 544.836 2535.96 541.246 C 2540.48 537.655 2543.07 546.102 2542.97 552.034 C 2542.88 557.966 2551.68 563.59 2551.68 563.59 C 2551.68 563.59 2551.68 563.59 2556.84 554.118 C 2562.01 544.647 2560.6 510.262 2555.67 504.073 C 2555.23 503.527 2554.8 502.972 2554.35 502.415 Z " fill="rgb(16,30,54)"></path><path d=" M 3294.51 1800.53 L 749.944 1800.53 C 748.042 1800.53 746.486 1798.97 746.486 1797.07 L 746.486 1794.88 C 746.486 1792.98 748.042 1791.42 749.944 1791.42 L 3294.51 1791.42 C 3296.41 1791.42 3297.97 1792.98 3297.97 1794.88 L 3297.97 1797.07 C 3297.97 1798.97 3296.41 1800.53 3294.51 1800.53 Z " fill="rgb(16,30,54)"></path><path d=" M 1850.758 1701.697 L 1853.788 1757.758 L 1721.22 1702.03 L 1850.758 1701.697 Z " fill="rgb(45,206,137)"></path><path d=" M 2475.92 1266.97 L 2475.92 1791.42 L 2875.21 1791.42 L 2875.21 1266.97 L 2475.92 1266.97 Z " fill="rgb(46,64,95)"></path><path d=" M 2352.8 1266.97 L 2352.8 1791.42 L 2752.1 1791.42 L 2752.1 1266.97 L 2352.8 1266.97 Z " fill="rgb(23,43,77)"></path><path d=" M 2880.303 1264.576 L 2880.303 1344.879 L 2752.1 1266.97 L 2880.303 1264.576 Z " fill="rgb(10,72,179)"></path></g></svg>